<mxfile host="app.diagrams.net" modified="2021-08-03T00:58:44.277Z" agent="5.0 (Macintosh; Intel Mac OS X 10_15_7) AppleWebKit/537.36 (KHTML, like Gecko) Chrome/92.0.4515.107 Safari/537.36" etag="0QO1__lK5OYtmH8VOHOQ" version="14.9.3" type="github" pages="2">
  <diagram id="FX6ZvP-1UlCbk6kqOSPl" name="Page-1">
    <mxGraphModel dx="946" dy="2925" grid="1" gridSize="10" guides="1" tooltips="1" connect="1" arrows="1" fold="1" page="1" pageScale="1" pageWidth="850" pageHeight="1100" math="0" shadow="0">
      <root>
        <mxCell id="0" />
        <mxCell id="1" parent="0" />
        <mxCell id="xV8SAOp8v6tJptimXfi4-107" value="" style="strokeWidth=1;shadow=0;dashed=0;align=center;html=1;shape=mxgraph.mockup.containers.browserWindow;rSize=0;strokeColor=#666666;strokeColor2=#008cff;strokeColor3=#c4c4c4;mainText=,;recursiveResize=0;" vertex="1" parent="1">
          <mxGeometry x="20" y="-2190" width="800" height="540" as="geometry" />
        </mxCell>
        <mxCell id="xV8SAOp8v6tJptimXfi4-108" value="FIT BEAST" style="strokeWidth=1;shadow=0;dashed=0;align=center;html=1;shape=mxgraph.mockup.containers.anchor;fontSize=17;fontColor=#666666;align=left;" vertex="1" parent="xV8SAOp8v6tJptimXfi4-107">
          <mxGeometry x="60" y="12" width="110" height="26" as="geometry" />
        </mxCell>
        <mxCell id="xV8SAOp8v6tJptimXfi4-109" value="https://milestone-project-04.herokuapp.com/" style="strokeWidth=1;shadow=0;dashed=0;align=center;html=1;shape=mxgraph.mockup.containers.anchor;rSize=0;fontSize=17;fontColor=#666666;align=left;" vertex="1" parent="xV8SAOp8v6tJptimXfi4-107">
          <mxGeometry x="130" y="60" width="250" height="26" as="geometry" />
        </mxCell>
        <mxCell id="xV8SAOp8v6tJptimXfi4-110" value="&lt;h1&gt;Heading&lt;/h1&gt;&lt;p&gt;Lorem ipsum dolor sit amet, consectetur adipisicing elit, sed do eiusmod tempor incididunt ut labore et dolore magna aliqua.&lt;/p&gt;" style="text;html=1;strokeColor=none;fillColor=none;spacing=5;spacingTop=-20;whiteSpace=wrap;overflow=hidden;rounded=0;" vertex="1" parent="xV8SAOp8v6tJptimXfi4-107">
          <mxGeometry x="50" y="280" width="380" height="120" as="geometry" />
        </mxCell>
        <mxCell id="xV8SAOp8v6tJptimXfi4-111" value="Home Page" style="text;html=1;strokeColor=none;fillColor=none;align=center;verticalAlign=middle;whiteSpace=wrap;rounded=0;fontStyle=5;fontColor=#1A1A1A;" vertex="1" parent="xV8SAOp8v6tJptimXfi4-107">
          <mxGeometry x="375" y="220" width="95" height="20" as="geometry" />
        </mxCell>
        <mxCell id="xV8SAOp8v6tJptimXfi4-112" value="" style="rounded=1;whiteSpace=wrap;html=1;fontColor=#FF3399;" vertex="1" parent="xV8SAOp8v6tJptimXfi4-107">
          <mxGeometry x="5" y="503" width="780" height="30" as="geometry" />
        </mxCell>
        <mxCell id="xV8SAOp8v6tJptimXfi4-113" value="Copyright text" style="text;html=1;strokeColor=none;fillColor=none;align=center;verticalAlign=middle;whiteSpace=wrap;rounded=0;fontColor=#1A1A1A;" vertex="1" parent="xV8SAOp8v6tJptimXfi4-107">
          <mxGeometry x="35" y="508" width="150" height="20" as="geometry" />
        </mxCell>
        <mxCell id="xV8SAOp8v6tJptimXfi4-114" value="Social Media links" style="text;html=1;strokeColor=none;fillColor=none;align=center;verticalAlign=middle;whiteSpace=wrap;rounded=0;fontColor=#1A1A1A;" vertex="1" parent="xV8SAOp8v6tJptimXfi4-107">
          <mxGeometry x="620" y="508" width="150" height="20" as="geometry" />
        </mxCell>
        <mxCell id="xV8SAOp8v6tJptimXfi4-115" value="Footer" style="text;html=1;strokeColor=none;fillColor=none;align=center;verticalAlign=middle;whiteSpace=wrap;rounded=0;fontStyle=5;fontColor=#1A1A1A;" vertex="1" parent="xV8SAOp8v6tJptimXfi4-107">
          <mxGeometry x="355" y="500" width="40" height="20" as="geometry" />
        </mxCell>
        <mxCell id="xV8SAOp8v6tJptimXfi4-116" value="HERO image background" style="text;html=1;strokeColor=none;fillColor=none;align=center;verticalAlign=middle;whiteSpace=wrap;rounded=0;fontColor=#1A1A1A;" vertex="1" parent="xV8SAOp8v6tJptimXfi4-107">
          <mxGeometry x="477.5" y="320" width="170" height="20" as="geometry" />
        </mxCell>
        <mxCell id="xV8SAOp8v6tJptimXfi4-117" value="Logo" style="html=1;shadow=0;dashed=0;strokeColor=#314354;fontSize=16;align=left;spacing=15;fontColor=#ffffff;fillColor=#1A1A1A;" vertex="1" parent="xV8SAOp8v6tJptimXfi4-107">
          <mxGeometry y="140" width="800" height="50" as="geometry" />
        </mxCell>
        <mxCell id="xV8SAOp8v6tJptimXfi4-118" value="Search" style="fillColor=none;strokeColor=none;fontSize=14;align=center;spacingRight=0;fontColor=#FFFFFF;" vertex="1" parent="xV8SAOp8v6tJptimXfi4-117">
          <mxGeometry width="80" height="40" relative="1" as="geometry">
            <mxPoint x="510" y="5" as="offset" />
          </mxGeometry>
        </mxCell>
        <mxCell id="xV8SAOp8v6tJptimXfi4-119" value="About" style="fillColor=none;strokeColor=none;fontSize=14;align=center;fontColor=#FFFFFF;" vertex="1" parent="xV8SAOp8v6tJptimXfi4-117">
          <mxGeometry width="80" height="40" relative="1" as="geometry">
            <mxPoint x="570" y="5" as="offset" />
          </mxGeometry>
        </mxCell>
        <mxCell id="xV8SAOp8v6tJptimXfi4-120" value="Bag" style="fillColor=none;strokeColor=none;fontSize=14;align=center;fontColor=#FFFFFF;" vertex="1" parent="xV8SAOp8v6tJptimXfi4-117">
          <mxGeometry x="717.9487179487179" y="5" width="82.05128205128204" height="40" as="geometry" />
        </mxCell>
        <mxCell id="xV8SAOp8v6tJptimXfi4-121" value="My Account" style="fillColor=none;strokeColor=none;fontSize=14;align=center;fontColor=#FFFFFF;" vertex="1" parent="xV8SAOp8v6tJptimXfi4-117">
          <mxGeometry x="651.2820512820513" y="5" width="82.05128205128204" height="40" as="geometry" />
        </mxCell>
        <mxCell id="zjGN44BCqOhcf97tZaiQ-23" value="Suppliments" style="fillColor=none;strokeColor=none;fontSize=14;align=center;spacingRight=0;fontColor=#C4C4C4;" vertex="1" parent="xV8SAOp8v6tJptimXfi4-117">
          <mxGeometry x="248" y="5" width="80" height="40" as="geometry" />
        </mxCell>
        <mxCell id="zjGN44BCqOhcf97tZaiQ-24" value="All Products" style="fillColor=none;strokeColor=none;fontSize=14;align=center;spacingRight=0;fontColor=#C4C4C4;" vertex="1" parent="xV8SAOp8v6tJptimXfi4-117">
          <mxGeometry x="68" y="5" width="80" height="40" as="geometry" />
        </mxCell>
        <mxCell id="zjGN44BCqOhcf97tZaiQ-25" value="Gym Items" style="fillColor=none;strokeColor=none;fontSize=14;align=center;spacingRight=0;fontColor=#C4C4C4;" vertex="1" parent="xV8SAOp8v6tJptimXfi4-117">
          <mxGeometry x="158" y="5" width="80" height="40" as="geometry" />
        </mxCell>
        <mxCell id="xV8SAOp8v6tJptimXfi4-122" value="" style="rounded=0;whiteSpace=wrap;html=1;fontColor=#FFFFFF;fillColor=#16C3F7;" vertex="1" parent="xV8SAOp8v6tJptimXfi4-107">
          <mxGeometry y="110" width="800" height="30" as="geometry" />
        </mxCell>
        <mxCell id="xV8SAOp8v6tJptimXfi4-123" value="Delivary banner" style="text;html=1;strokeColor=none;fillColor=none;align=center;verticalAlign=middle;whiteSpace=wrap;rounded=0;fontColor=#1A1A1A;" vertex="1" parent="xV8SAOp8v6tJptimXfi4-107">
          <mxGeometry x="315" y="115" width="215" height="20" as="geometry" />
        </mxCell>
        <mxCell id="zjGN44BCqOhcf97tZaiQ-1" value="Shop now button" style="verticalLabelPosition=bottom;verticalAlign=top;html=1;shape=mxgraph.basic.patternFillRect;fillStyle=diagRev;step=5;fillStrokeWidth=0.2;fillStrokeColor=#dddddd;" vertex="1" parent="1">
          <mxGeometry x="70" y="-1820" width="180" height="50" as="geometry" />
        </mxCell>
        <mxCell id="zjGN44BCqOhcf97tZaiQ-2" value="" style="strokeWidth=1;shadow=0;dashed=0;align=center;html=1;shape=mxgraph.mockup.containers.browserWindow;rSize=0;strokeColor=#666666;strokeColor2=#008cff;strokeColor3=#c4c4c4;mainText=,;recursiveResize=0;" vertex="1" parent="1">
          <mxGeometry x="20" y="-1640" width="800" height="540" as="geometry" />
        </mxCell>
        <mxCell id="zjGN44BCqOhcf97tZaiQ-3" value="FIT BEAST" style="strokeWidth=1;shadow=0;dashed=0;align=center;html=1;shape=mxgraph.mockup.containers.anchor;fontSize=17;fontColor=#666666;align=left;" vertex="1" parent="zjGN44BCqOhcf97tZaiQ-2">
          <mxGeometry x="60" y="12" width="110" height="26" as="geometry" />
        </mxCell>
        <mxCell id="zjGN44BCqOhcf97tZaiQ-4" value="https://milestone-project-04.herokuapp.com/" style="strokeWidth=1;shadow=0;dashed=0;align=center;html=1;shape=mxgraph.mockup.containers.anchor;rSize=0;fontSize=17;fontColor=#666666;align=left;" vertex="1" parent="zjGN44BCqOhcf97tZaiQ-2">
          <mxGeometry x="130" y="60" width="250" height="26" as="geometry" />
        </mxCell>
        <mxCell id="zjGN44BCqOhcf97tZaiQ-6" value="product page" style="text;html=1;strokeColor=none;fillColor=none;align=center;verticalAlign=middle;whiteSpace=wrap;rounded=0;fontStyle=5;fontColor=#1A1A1A;" vertex="1" parent="zjGN44BCqOhcf97tZaiQ-2">
          <mxGeometry x="370" y="210" width="95" height="20" as="geometry" />
        </mxCell>
        <mxCell id="zjGN44BCqOhcf97tZaiQ-7" value="" style="rounded=1;whiteSpace=wrap;html=1;fontColor=#FF3399;" vertex="1" parent="zjGN44BCqOhcf97tZaiQ-2">
          <mxGeometry x="5" y="503" width="780" height="30" as="geometry" />
        </mxCell>
        <mxCell id="zjGN44BCqOhcf97tZaiQ-8" value="Copyright text" style="text;html=1;strokeColor=none;fillColor=none;align=center;verticalAlign=middle;whiteSpace=wrap;rounded=0;fontColor=#1A1A1A;" vertex="1" parent="zjGN44BCqOhcf97tZaiQ-2">
          <mxGeometry x="35" y="508" width="150" height="20" as="geometry" />
        </mxCell>
        <mxCell id="zjGN44BCqOhcf97tZaiQ-9" value="Social Media links" style="text;html=1;strokeColor=none;fillColor=none;align=center;verticalAlign=middle;whiteSpace=wrap;rounded=0;fontColor=#1A1A1A;" vertex="1" parent="zjGN44BCqOhcf97tZaiQ-2">
          <mxGeometry x="620" y="508" width="150" height="20" as="geometry" />
        </mxCell>
        <mxCell id="zjGN44BCqOhcf97tZaiQ-10" value="Footer" style="text;html=1;strokeColor=none;fillColor=none;align=center;verticalAlign=middle;whiteSpace=wrap;rounded=0;fontStyle=5;fontColor=#1A1A1A;" vertex="1" parent="zjGN44BCqOhcf97tZaiQ-2">
          <mxGeometry x="355" y="500" width="40" height="20" as="geometry" />
        </mxCell>
        <mxCell id="zjGN44BCqOhcf97tZaiQ-12" value="Logo" style="html=1;shadow=0;dashed=0;strokeColor=#314354;fontSize=16;align=left;spacing=15;fontColor=#ffffff;fillColor=#1A1A1A;" vertex="1" parent="zjGN44BCqOhcf97tZaiQ-2">
          <mxGeometry y="140" width="800" height="50" as="geometry" />
        </mxCell>
        <mxCell id="zjGN44BCqOhcf97tZaiQ-13" value="Search" style="fillColor=none;strokeColor=none;fontSize=14;align=center;spacingRight=0;fontColor=#FFFFFF;" vertex="1" parent="zjGN44BCqOhcf97tZaiQ-12">
          <mxGeometry width="80" height="40" relative="1" as="geometry">
            <mxPoint x="510" y="5" as="offset" />
          </mxGeometry>
        </mxCell>
        <mxCell id="zjGN44BCqOhcf97tZaiQ-14" value="About" style="fillColor=none;strokeColor=none;fontSize=14;align=center;fontColor=#FFFFFF;" vertex="1" parent="zjGN44BCqOhcf97tZaiQ-12">
          <mxGeometry width="80" height="40" relative="1" as="geometry">
            <mxPoint x="570" y="5" as="offset" />
          </mxGeometry>
        </mxCell>
        <mxCell id="zjGN44BCqOhcf97tZaiQ-15" value="Bag" style="fillColor=none;strokeColor=none;fontSize=14;align=center;fontColor=#FFFFFF;" vertex="1" parent="zjGN44BCqOhcf97tZaiQ-12">
          <mxGeometry x="717.9487179487179" y="5" width="82.05128205128204" height="40" as="geometry" />
        </mxCell>
        <mxCell id="zjGN44BCqOhcf97tZaiQ-16" value="My Account" style="fillColor=none;strokeColor=none;fontSize=14;align=center;fontColor=#FFFFFF;" vertex="1" parent="zjGN44BCqOhcf97tZaiQ-12">
          <mxGeometry x="651.2820512820513" y="5" width="82.05128205128204" height="40" as="geometry" />
        </mxCell>
        <mxCell id="zjGN44BCqOhcf97tZaiQ-17" value="" style="rounded=0;whiteSpace=wrap;html=1;fontColor=#FFFFFF;fillColor=#16C3F7;" vertex="1" parent="zjGN44BCqOhcf97tZaiQ-2">
          <mxGeometry y="110" width="800" height="30" as="geometry" />
        </mxCell>
        <mxCell id="zjGN44BCqOhcf97tZaiQ-18" value="Delivary banner" style="text;html=1;strokeColor=none;fillColor=none;align=center;verticalAlign=middle;whiteSpace=wrap;rounded=0;fontColor=#1A1A1A;" vertex="1" parent="zjGN44BCqOhcf97tZaiQ-2">
          <mxGeometry x="315" y="115" width="215" height="20" as="geometry" />
        </mxCell>
        <mxCell id="zjGN44BCqOhcf97tZaiQ-21" value="Suppliments" style="fillColor=none;strokeColor=none;fontSize=14;align=center;spacingRight=0;fontColor=#C4C4C4;" vertex="1" parent="zjGN44BCqOhcf97tZaiQ-2">
          <mxGeometry x="250" y="146" width="80" height="40" as="geometry" />
        </mxCell>
        <mxCell id="zjGN44BCqOhcf97tZaiQ-27" value="Product img 2" style="verticalLabelPosition=bottom;shadow=0;dashed=0;align=center;html=1;verticalAlign=top;strokeWidth=1;shape=mxgraph.mockup.graphics.simpleIcon;strokeColor=#999999;fontColor=#C4C4C4;" vertex="1" parent="zjGN44BCqOhcf97tZaiQ-2">
          <mxGeometry x="280" y="252" width="100" height="100" as="geometry" />
        </mxCell>
        <mxCell id="zjGN44BCqOhcf97tZaiQ-26" value="Product img 1" style="verticalLabelPosition=bottom;shadow=0;dashed=0;align=center;html=1;verticalAlign=top;strokeWidth=1;shape=mxgraph.mockup.graphics.simpleIcon;strokeColor=#999999;fontColor=#C4C4C4;" vertex="1" parent="zjGN44BCqOhcf97tZaiQ-2">
          <mxGeometry x="120" y="252" width="100" height="100" as="geometry" />
        </mxCell>
        <mxCell id="zjGN44BCqOhcf97tZaiQ-28" value="Product img 3" style="verticalLabelPosition=bottom;shadow=0;dashed=0;align=center;html=1;verticalAlign=top;strokeWidth=1;shape=mxgraph.mockup.graphics.simpleIcon;strokeColor=#999999;fontColor=#C4C4C4;" vertex="1" parent="zjGN44BCqOhcf97tZaiQ-2">
          <mxGeometry x="435" y="252" width="100" height="100" as="geometry" />
        </mxCell>
        <mxCell id="zjGN44BCqOhcf97tZaiQ-29" value="Product img 4" style="verticalLabelPosition=bottom;shadow=0;dashed=0;align=center;html=1;verticalAlign=top;strokeWidth=1;shape=mxgraph.mockup.graphics.simpleIcon;strokeColor=#999999;fontColor=#C4C4C4;" vertex="1" parent="zjGN44BCqOhcf97tZaiQ-2">
          <mxGeometry x="580" y="252" width="100" height="100" as="geometry" />
        </mxCell>
        <mxCell id="zjGN44BCqOhcf97tZaiQ-30" value="Product img 6" style="verticalLabelPosition=bottom;shadow=0;dashed=0;align=center;html=1;verticalAlign=top;strokeWidth=1;shape=mxgraph.mockup.graphics.simpleIcon;strokeColor=#999999;fontColor=#C4C4C4;" vertex="1" parent="zjGN44BCqOhcf97tZaiQ-2">
          <mxGeometry x="283" y="385" width="100" height="100" as="geometry" />
        </mxCell>
        <mxCell id="zjGN44BCqOhcf97tZaiQ-31" value="Product img 5" style="verticalLabelPosition=bottom;shadow=0;dashed=0;align=center;html=1;verticalAlign=top;strokeWidth=1;shape=mxgraph.mockup.graphics.simpleIcon;strokeColor=#999999;fontColor=#C4C4C4;" vertex="1" parent="zjGN44BCqOhcf97tZaiQ-2">
          <mxGeometry x="123" y="385" width="100" height="100" as="geometry" />
        </mxCell>
        <mxCell id="zjGN44BCqOhcf97tZaiQ-32" value="Product img 7" style="verticalLabelPosition=bottom;shadow=0;dashed=0;align=center;html=1;verticalAlign=top;strokeWidth=1;shape=mxgraph.mockup.graphics.simpleIcon;strokeColor=#999999;fontColor=#C4C4C4;" vertex="1" parent="zjGN44BCqOhcf97tZaiQ-2">
          <mxGeometry x="438" y="385" width="100" height="100" as="geometry" />
        </mxCell>
        <mxCell id="zjGN44BCqOhcf97tZaiQ-33" value="Product img 8" style="verticalLabelPosition=bottom;shadow=0;dashed=0;align=center;html=1;verticalAlign=top;strokeWidth=1;shape=mxgraph.mockup.graphics.simpleIcon;strokeColor=#999999;fontColor=#C4C4C4;" vertex="1" parent="zjGN44BCqOhcf97tZaiQ-2">
          <mxGeometry x="583" y="385" width="100" height="100" as="geometry" />
        </mxCell>
        <mxCell id="zjGN44BCqOhcf97tZaiQ-20" value="All Products" style="fillColor=none;strokeColor=none;fontSize=14;align=center;spacingRight=0;fontColor=#C4C4C4;" vertex="1" parent="1">
          <mxGeometry x="90" y="-1494" width="80" height="40" as="geometry" />
        </mxCell>
        <mxCell id="zjGN44BCqOhcf97tZaiQ-22" value="Gym Items" style="fillColor=none;strokeColor=none;fontSize=14;align=center;spacingRight=0;fontColor=#C4C4C4;" vertex="1" parent="1">
          <mxGeometry x="180" y="-1494" width="80" height="40" as="geometry" />
        </mxCell>
        <mxCell id="zjGN44BCqOhcf97tZaiQ-82" value="" style="strokeWidth=1;shadow=0;dashed=0;align=center;html=1;shape=mxgraph.mockup.containers.browserWindow;rSize=0;strokeColor=#666666;strokeColor2=#008cff;strokeColor3=#c4c4c4;mainText=,;recursiveResize=0;" vertex="1" parent="1">
          <mxGeometry x="20" y="-1070" width="800" height="540" as="geometry" />
        </mxCell>
        <mxCell id="zjGN44BCqOhcf97tZaiQ-83" value="FIT BEAST" style="strokeWidth=1;shadow=0;dashed=0;align=center;html=1;shape=mxgraph.mockup.containers.anchor;fontSize=17;fontColor=#666666;align=left;" vertex="1" parent="zjGN44BCqOhcf97tZaiQ-82">
          <mxGeometry x="60" y="12" width="110" height="26" as="geometry" />
        </mxCell>
        <mxCell id="zjGN44BCqOhcf97tZaiQ-84" value="https://milestone-project-04.herokuapp.com/" style="strokeWidth=1;shadow=0;dashed=0;align=center;html=1;shape=mxgraph.mockup.containers.anchor;rSize=0;fontSize=17;fontColor=#666666;align=left;" vertex="1" parent="zjGN44BCqOhcf97tZaiQ-82">
          <mxGeometry x="130" y="60" width="250" height="26" as="geometry" />
        </mxCell>
        <mxCell id="zjGN44BCqOhcf97tZaiQ-85" value="add to bag page" style="text;html=1;strokeColor=none;fillColor=none;align=center;verticalAlign=middle;whiteSpace=wrap;rounded=0;fontStyle=5;fontColor=#1A1A1A;" vertex="1" parent="zjGN44BCqOhcf97tZaiQ-82">
          <mxGeometry x="370" y="200" width="95" height="20" as="geometry" />
        </mxCell>
        <mxCell id="zjGN44BCqOhcf97tZaiQ-86" value="" style="rounded=1;whiteSpace=wrap;html=1;fontColor=#FF3399;" vertex="1" parent="zjGN44BCqOhcf97tZaiQ-82">
          <mxGeometry x="5" y="503" width="780" height="30" as="geometry" />
        </mxCell>
        <mxCell id="zjGN44BCqOhcf97tZaiQ-87" value="Copyright text" style="text;html=1;strokeColor=none;fillColor=none;align=center;verticalAlign=middle;whiteSpace=wrap;rounded=0;fontColor=#1A1A1A;" vertex="1" parent="zjGN44BCqOhcf97tZaiQ-82">
          <mxGeometry x="35" y="508" width="150" height="20" as="geometry" />
        </mxCell>
        <mxCell id="zjGN44BCqOhcf97tZaiQ-88" value="Social Media links" style="text;html=1;strokeColor=none;fillColor=none;align=center;verticalAlign=middle;whiteSpace=wrap;rounded=0;fontColor=#1A1A1A;" vertex="1" parent="zjGN44BCqOhcf97tZaiQ-82">
          <mxGeometry x="620" y="508" width="150" height="20" as="geometry" />
        </mxCell>
        <mxCell id="zjGN44BCqOhcf97tZaiQ-89" value="Footer" style="text;html=1;strokeColor=none;fillColor=none;align=center;verticalAlign=middle;whiteSpace=wrap;rounded=0;fontStyle=5;fontColor=#1A1A1A;" vertex="1" parent="zjGN44BCqOhcf97tZaiQ-82">
          <mxGeometry x="355" y="500" width="40" height="20" as="geometry" />
        </mxCell>
        <mxCell id="zjGN44BCqOhcf97tZaiQ-90" value="Logo" style="html=1;shadow=0;dashed=0;strokeColor=#314354;fontSize=16;align=left;spacing=15;fontColor=#ffffff;fillColor=#1A1A1A;" vertex="1" parent="zjGN44BCqOhcf97tZaiQ-82">
          <mxGeometry y="140" width="800" height="50" as="geometry" />
        </mxCell>
        <mxCell id="zjGN44BCqOhcf97tZaiQ-91" value="Search" style="fillColor=none;strokeColor=none;fontSize=14;align=center;spacingRight=0;fontColor=#FFFFFF;" vertex="1" parent="zjGN44BCqOhcf97tZaiQ-90">
          <mxGeometry width="80" height="40" relative="1" as="geometry">
            <mxPoint x="510" y="5" as="offset" />
          </mxGeometry>
        </mxCell>
        <mxCell id="zjGN44BCqOhcf97tZaiQ-92" value="About" style="fillColor=none;strokeColor=none;fontSize=14;align=center;fontColor=#FFFFFF;" vertex="1" parent="zjGN44BCqOhcf97tZaiQ-90">
          <mxGeometry width="80" height="40" relative="1" as="geometry">
            <mxPoint x="570" y="5" as="offset" />
          </mxGeometry>
        </mxCell>
        <mxCell id="zjGN44BCqOhcf97tZaiQ-93" value="Bag" style="fillColor=none;strokeColor=none;fontSize=14;align=center;fontColor=#FFFFFF;" vertex="1" parent="zjGN44BCqOhcf97tZaiQ-90">
          <mxGeometry x="717.9487179487179" y="5" width="82.05128205128204" height="40" as="geometry" />
        </mxCell>
        <mxCell id="zjGN44BCqOhcf97tZaiQ-94" value="My Account" style="fillColor=none;strokeColor=none;fontSize=14;align=center;fontColor=#FFFFFF;" vertex="1" parent="zjGN44BCqOhcf97tZaiQ-90">
          <mxGeometry x="651.2820512820513" y="5" width="82.05128205128204" height="40" as="geometry" />
        </mxCell>
        <mxCell id="zjGN44BCqOhcf97tZaiQ-95" value="" style="rounded=0;whiteSpace=wrap;html=1;fontColor=#FFFFFF;fillColor=#16C3F7;" vertex="1" parent="zjGN44BCqOhcf97tZaiQ-82">
          <mxGeometry y="110" width="800" height="30" as="geometry" />
        </mxCell>
        <mxCell id="zjGN44BCqOhcf97tZaiQ-96" value="Delivary banner" style="text;html=1;strokeColor=none;fillColor=none;align=center;verticalAlign=middle;whiteSpace=wrap;rounded=0;fontColor=#1A1A1A;" vertex="1" parent="zjGN44BCqOhcf97tZaiQ-82">
          <mxGeometry x="315" y="115" width="215" height="20" as="geometry" />
        </mxCell>
        <mxCell id="zjGN44BCqOhcf97tZaiQ-97" value="Suppliments" style="fillColor=none;strokeColor=none;fontSize=14;align=center;spacingRight=0;fontColor=#C4C4C4;" vertex="1" parent="zjGN44BCqOhcf97tZaiQ-82">
          <mxGeometry x="250" y="146" width="80" height="40" as="geometry" />
        </mxCell>
        <mxCell id="zjGN44BCqOhcf97tZaiQ-99" value="Product image" style="verticalLabelPosition=bottom;shadow=0;dashed=0;align=center;html=1;verticalAlign=top;strokeWidth=1;shape=mxgraph.mockup.graphics.simpleIcon;strokeColor=#999999;fontColor=#C4C4C4;" vertex="1" parent="zjGN44BCqOhcf97tZaiQ-82">
          <mxGeometry x="205" y="260" width="170" height="170" as="geometry" />
        </mxCell>
        <mxCell id="zjGN44BCqOhcf97tZaiQ-109" value="Keep Shopping" style="rounded=1;html=1;shadow=0;dashed=0;whiteSpace=wrap;fontSize=10;fillColor=#666666;align=center;strokeColor=#4D4D4D;fontColor=#ffffff;" vertex="1" parent="zjGN44BCqOhcf97tZaiQ-82">
          <mxGeometry x="420" y="413.12" width="105.5" height="26.88" as="geometry" />
        </mxCell>
        <mxCell id="zjGN44BCqOhcf97tZaiQ-110" value="Add to bag" style="rounded=1;html=1;shadow=0;dashed=0;whiteSpace=wrap;fontSize=10;fillColor=#666666;align=center;strokeColor=#4D4D4D;fontColor=#ffffff;" vertex="1" parent="zjGN44BCqOhcf97tZaiQ-82">
          <mxGeometry x="530" y="413.12" width="105.5" height="26.88" as="geometry" />
        </mxCell>
        <mxCell id="zjGN44BCqOhcf97tZaiQ-106" value="All Products" style="fillColor=none;strokeColor=none;fontSize=14;align=center;spacingRight=0;fontColor=#C4C4C4;" vertex="1" parent="1">
          <mxGeometry x="90" y="-924" width="80" height="40" as="geometry" />
        </mxCell>
        <mxCell id="zjGN44BCqOhcf97tZaiQ-107" value="Gym Items" style="fillColor=none;strokeColor=none;fontSize=14;align=center;spacingRight=0;fontColor=#C4C4C4;" vertex="1" parent="1">
          <mxGeometry x="180" y="-924" width="80" height="40" as="geometry" />
        </mxCell>
        <mxCell id="zjGN44BCqOhcf97tZaiQ-108" value="Product details" style="verticalLabelPosition=bottom;verticalAlign=top;html=1;shape=mxgraph.basic.patternFillRect;fillStyle=diagRev;step=5;fillStrokeWidth=0.2;fillStrokeColor=#dddddd;fontColor=#C4C4C4;" vertex="1" parent="1">
          <mxGeometry x="430" y="-810" width="180" height="110" as="geometry" />
        </mxCell>
        <mxCell id="zjGN44BCqOhcf97tZaiQ-111" value="" style="strokeWidth=1;shadow=0;dashed=0;align=center;html=1;shape=mxgraph.mockup.containers.browserWindow;rSize=0;strokeColor=#666666;strokeColor2=#008cff;strokeColor3=#c4c4c4;mainText=,;recursiveResize=0;" vertex="1" parent="1">
          <mxGeometry x="30" y="-500" width="800" height="540" as="geometry" />
        </mxCell>
        <mxCell id="zjGN44BCqOhcf97tZaiQ-112" value="FIT BEAST" style="strokeWidth=1;shadow=0;dashed=0;align=center;html=1;shape=mxgraph.mockup.containers.anchor;fontSize=17;fontColor=#666666;align=left;" vertex="1" parent="zjGN44BCqOhcf97tZaiQ-111">
          <mxGeometry x="60" y="12" width="110" height="26" as="geometry" />
        </mxCell>
        <mxCell id="zjGN44BCqOhcf97tZaiQ-113" value="https://milestone-project-04.herokuapp.com/" style="strokeWidth=1;shadow=0;dashed=0;align=center;html=1;shape=mxgraph.mockup.containers.anchor;rSize=0;fontSize=17;fontColor=#666666;align=left;" vertex="1" parent="zjGN44BCqOhcf97tZaiQ-111">
          <mxGeometry x="130" y="60" width="250" height="26" as="geometry" />
        </mxCell>
        <mxCell id="zjGN44BCqOhcf97tZaiQ-114" value="check out page" style="text;html=1;strokeColor=none;fillColor=none;align=center;verticalAlign=middle;whiteSpace=wrap;rounded=0;fontStyle=5;fontColor=#1A1A1A;" vertex="1" parent="zjGN44BCqOhcf97tZaiQ-111">
          <mxGeometry x="370" y="200" width="95" height="20" as="geometry" />
        </mxCell>
        <mxCell id="zjGN44BCqOhcf97tZaiQ-115" value="" style="rounded=1;whiteSpace=wrap;html=1;fontColor=#FF3399;" vertex="1" parent="zjGN44BCqOhcf97tZaiQ-111">
          <mxGeometry x="5" y="503" width="780" height="30" as="geometry" />
        </mxCell>
        <mxCell id="zjGN44BCqOhcf97tZaiQ-116" value="Copyright text" style="text;html=1;strokeColor=none;fillColor=none;align=center;verticalAlign=middle;whiteSpace=wrap;rounded=0;fontColor=#1A1A1A;" vertex="1" parent="zjGN44BCqOhcf97tZaiQ-111">
          <mxGeometry x="35" y="508" width="150" height="20" as="geometry" />
        </mxCell>
        <mxCell id="zjGN44BCqOhcf97tZaiQ-117" value="Social Media links" style="text;html=1;strokeColor=none;fillColor=none;align=center;verticalAlign=middle;whiteSpace=wrap;rounded=0;fontColor=#1A1A1A;" vertex="1" parent="zjGN44BCqOhcf97tZaiQ-111">
          <mxGeometry x="620" y="508" width="150" height="20" as="geometry" />
        </mxCell>
        <mxCell id="zjGN44BCqOhcf97tZaiQ-118" value="Footer" style="text;html=1;strokeColor=none;fillColor=none;align=center;verticalAlign=middle;whiteSpace=wrap;rounded=0;fontStyle=5;fontColor=#1A1A1A;" vertex="1" parent="zjGN44BCqOhcf97tZaiQ-111">
          <mxGeometry x="355" y="500" width="40" height="20" as="geometry" />
        </mxCell>
        <mxCell id="zjGN44BCqOhcf97tZaiQ-119" value="Logo" style="html=1;shadow=0;dashed=0;strokeColor=#314354;fontSize=16;align=left;spacing=15;fontColor=#ffffff;fillColor=#1A1A1A;" vertex="1" parent="zjGN44BCqOhcf97tZaiQ-111">
          <mxGeometry y="140" width="800" height="50" as="geometry" />
        </mxCell>
        <mxCell id="zjGN44BCqOhcf97tZaiQ-120" value="Search" style="fillColor=none;strokeColor=none;fontSize=14;align=center;spacingRight=0;fontColor=#FFFFFF;" vertex="1" parent="zjGN44BCqOhcf97tZaiQ-119">
          <mxGeometry width="80" height="40" relative="1" as="geometry">
            <mxPoint x="510" y="5" as="offset" />
          </mxGeometry>
        </mxCell>
        <mxCell id="zjGN44BCqOhcf97tZaiQ-121" value="About" style="fillColor=none;strokeColor=none;fontSize=14;align=center;fontColor=#FFFFFF;" vertex="1" parent="zjGN44BCqOhcf97tZaiQ-119">
          <mxGeometry width="80" height="40" relative="1" as="geometry">
            <mxPoint x="570" y="5" as="offset" />
          </mxGeometry>
        </mxCell>
        <mxCell id="zjGN44BCqOhcf97tZaiQ-122" value="Bag" style="fillColor=none;strokeColor=none;fontSize=14;align=center;fontColor=#FFFFFF;" vertex="1" parent="zjGN44BCqOhcf97tZaiQ-119">
          <mxGeometry x="717.9487179487179" y="5" width="82.05128205128204" height="40" as="geometry" />
        </mxCell>
        <mxCell id="zjGN44BCqOhcf97tZaiQ-123" value="My Account" style="fillColor=none;strokeColor=none;fontSize=14;align=center;fontColor=#FFFFFF;" vertex="1" parent="zjGN44BCqOhcf97tZaiQ-119">
          <mxGeometry x="651.2820512820513" y="5" width="82.05128205128204" height="40" as="geometry" />
        </mxCell>
        <mxCell id="zjGN44BCqOhcf97tZaiQ-124" value="" style="rounded=0;whiteSpace=wrap;html=1;fontColor=#FFFFFF;fillColor=#16C3F7;" vertex="1" parent="zjGN44BCqOhcf97tZaiQ-111">
          <mxGeometry y="110" width="800" height="30" as="geometry" />
        </mxCell>
        <mxCell id="zjGN44BCqOhcf97tZaiQ-125" value="Delivary banner" style="text;html=1;strokeColor=none;fillColor=none;align=center;verticalAlign=middle;whiteSpace=wrap;rounded=0;fontColor=#1A1A1A;" vertex="1" parent="zjGN44BCqOhcf97tZaiQ-111">
          <mxGeometry x="315" y="115" width="215" height="20" as="geometry" />
        </mxCell>
        <mxCell id="zjGN44BCqOhcf97tZaiQ-126" value="Suppliments" style="fillColor=none;strokeColor=none;fontSize=14;align=center;spacingRight=0;fontColor=#C4C4C4;" vertex="1" parent="zjGN44BCqOhcf97tZaiQ-111">
          <mxGeometry x="250" y="146" width="80" height="40" as="geometry" />
        </mxCell>
        <mxCell id="zjGN44BCqOhcf97tZaiQ-127" value="Order details" style="verticalLabelPosition=bottom;shadow=0;dashed=0;align=center;html=1;verticalAlign=top;strokeWidth=1;shape=mxgraph.mockup.graphics.simpleIcon;strokeColor=#999999;fontColor=#C4C4C4;" vertex="1" parent="zjGN44BCqOhcf97tZaiQ-111">
          <mxGeometry x="72.75" y="230" width="290" height="210" as="geometry" />
        </mxCell>
        <mxCell id="zjGN44BCqOhcf97tZaiQ-128" value="Adjust Bag" style="rounded=1;html=1;shadow=0;dashed=0;whiteSpace=wrap;fontSize=10;fillColor=#666666;align=center;strokeColor=#4D4D4D;fontColor=#ffffff;" vertex="1" parent="zjGN44BCqOhcf97tZaiQ-111">
          <mxGeometry x="147.25" y="470" width="105.5" height="26.88" as="geometry" />
        </mxCell>
        <mxCell id="zjGN44BCqOhcf97tZaiQ-129" value="Complete Order" style="rounded=1;html=1;shadow=0;dashed=0;whiteSpace=wrap;fontSize=10;fillColor=#666666;align=center;strokeColor=#4D4D4D;fontColor=#ffffff;" vertex="1" parent="zjGN44BCqOhcf97tZaiQ-111">
          <mxGeometry x="257.25" y="470" width="105.5" height="26.88" as="geometry" />
        </mxCell>
        <mxCell id="zjGN44BCqOhcf97tZaiQ-135" value="Order Summery" style="text;html=1;strokeColor=none;fillColor=none;align=center;verticalAlign=middle;whiteSpace=wrap;rounded=0;fontColor=#C4C4C4;" vertex="1" parent="zjGN44BCqOhcf97tZaiQ-111">
          <mxGeometry x="510" y="230" width="100" height="20" as="geometry" />
        </mxCell>
        <mxCell id="zjGN44BCqOhcf97tZaiQ-130" value="All Products" style="fillColor=none;strokeColor=none;fontSize=14;align=center;spacingRight=0;fontColor=#C4C4C4;" vertex="1" parent="1">
          <mxGeometry x="100" y="-354" width="80" height="40" as="geometry" />
        </mxCell>
        <mxCell id="zjGN44BCqOhcf97tZaiQ-131" value="Gym Items" style="fillColor=none;strokeColor=none;fontSize=14;align=center;spacingRight=0;fontColor=#C4C4C4;" vertex="1" parent="1">
          <mxGeometry x="190" y="-354" width="80" height="40" as="geometry" />
        </mxCell>
        <mxCell id="zjGN44BCqOhcf97tZaiQ-133" value="Product img 1" style="verticalLabelPosition=bottom;shadow=0;dashed=0;align=center;html=1;verticalAlign=top;strokeWidth=1;shape=mxgraph.mockup.graphics.simpleIcon;strokeColor=#999999;fontColor=#C4C4C4;" vertex="1" parent="1">
          <mxGeometry x="550" y="-240" width="80" height="80" as="geometry" />
        </mxCell>
      </root>
    </mxGraphModel>
  </diagram>
  <diagram id="i0ZZbL9i1l1gCDjZjhE_" name="Page-2">
    <mxGraphModel dx="946" dy="515" grid="1" gridSize="10" guides="1" tooltips="1" connect="1" arrows="1" fold="1" page="1" pageScale="1" pageWidth="850" pageHeight="1100" math="0" shadow="0">
      <root>
        <mxCell id="MtRLI7yiEm-c7Kpkj0M4-0" />
        <mxCell id="MtRLI7yiEm-c7Kpkj0M4-1" parent="MtRLI7yiEm-c7Kpkj0M4-0" />
        <mxCell id="MtRLI7yiEm-c7Kpkj0M4-2" value="" style="rounded=0;whiteSpace=wrap;html=1;fontColor=#FF3399;" vertex="1" parent="MtRLI7yiEm-c7Kpkj0M4-1">
          <mxGeometry x="284" y="70" width="160" height="140" as="geometry" />
        </mxCell>
        <mxCell id="MtRLI7yiEm-c7Kpkj0M4-3" value="" style="html=1;verticalLabelPosition=bottom;labelBackgroundColor=#ffffff;verticalAlign=top;shadow=0;dashed=0;strokeWidth=1;shape=mxgraph.ios7.misc.iphone;strokeColor=#c0c0c0;fontSize=24;" vertex="1" parent="MtRLI7yiEm-c7Kpkj0M4-1">
          <mxGeometry x="80" y="10" width="200" height="450" as="geometry" />
        </mxCell>
        <mxCell id="MtRLI7yiEm-c7Kpkj0M4-4" value="Home" style="text;html=1;strokeColor=none;fillColor=none;align=center;verticalAlign=middle;whiteSpace=wrap;rounded=0;" vertex="1" parent="MtRLI7yiEm-c7Kpkj0M4-1">
          <mxGeometry x="336" y="70" width="40" height="20" as="geometry" />
        </mxCell>
        <mxCell id="MtRLI7yiEm-c7Kpkj0M4-5" value="Profile" style="text;html=1;strokeColor=none;fillColor=none;align=center;verticalAlign=middle;whiteSpace=wrap;rounded=0;" vertex="1" parent="MtRLI7yiEm-c7Kpkj0M4-1">
          <mxGeometry x="334" y="110" width="40" height="20" as="geometry" />
        </mxCell>
        <mxCell id="MtRLI7yiEm-c7Kpkj0M4-6" value="Recipes" style="text;html=1;strokeColor=none;fillColor=none;align=center;verticalAlign=middle;whiteSpace=wrap;rounded=0;" vertex="1" parent="MtRLI7yiEm-c7Kpkj0M4-1">
          <mxGeometry x="335" y="84.25" width="40" height="25" as="geometry" />
        </mxCell>
        <mxCell id="MtRLI7yiEm-c7Kpkj0M4-7" value="Register" style="text;html=1;strokeColor=none;fillColor=none;align=center;verticalAlign=middle;whiteSpace=wrap;rounded=0;" vertex="1" parent="MtRLI7yiEm-c7Kpkj0M4-1">
          <mxGeometry x="336" y="160" width="40" height="20" as="geometry" />
        </mxCell>
        <mxCell id="MtRLI7yiEm-c7Kpkj0M4-8" value="" style="html=1;verticalLabelPosition=bottom;labelBackgroundColor=#ffffff;verticalAlign=top;shadow=0;dashed=0;strokeWidth=2;shape=mxgraph.ios7.misc.options;fillColor=#222222;fontColor=#FF3399;" vertex="1" parent="MtRLI7yiEm-c7Kpkj0M4-1">
          <mxGeometry x="247.5" y="78.25" width="20" height="20" as="geometry" />
        </mxCell>
        <mxCell id="MtRLI7yiEm-c7Kpkj0M4-9" value="Logo" style="text;html=1;strokeColor=none;fillColor=none;align=center;verticalAlign=middle;whiteSpace=wrap;rounded=0;" vertex="1" parent="MtRLI7yiEm-c7Kpkj0M4-1">
          <mxGeometry x="155" y="78.25" width="40" height="20" as="geometry" />
        </mxCell>
        <mxCell id="MtRLI7yiEm-c7Kpkj0M4-10" value="Log In" style="text;html=1;strokeColor=none;fillColor=none;align=center;verticalAlign=middle;whiteSpace=wrap;rounded=0;" vertex="1" parent="MtRLI7yiEm-c7Kpkj0M4-1">
          <mxGeometry x="334" y="133" width="40" height="24" as="geometry" />
        </mxCell>
        <mxCell id="MtRLI7yiEm-c7Kpkj0M4-11" value="Log Out" style="text;html=1;strokeColor=none;fillColor=none;align=center;verticalAlign=middle;whiteSpace=wrap;rounded=0;" vertex="1" parent="MtRLI7yiEm-c7Kpkj0M4-1">
          <mxGeometry x="329" y="180" width="54" height="20" as="geometry" />
        </mxCell>
        <mxCell id="MtRLI7yiEm-c7Kpkj0M4-12" value="&lt;h1&gt;Heading&lt;/h1&gt;&lt;p&gt;Lorem ipsum dolor sit amet, consectetur adipisicing elit, sed do eiusmod tempor incididunt ut labore et dolore magna aliqua.&lt;/p&gt;" style="text;html=1;strokeColor=none;fillColor=none;spacing=5;spacingTop=-20;whiteSpace=wrap;overflow=hidden;rounded=0;" vertex="1" parent="MtRLI7yiEm-c7Kpkj0M4-1">
          <mxGeometry x="100" y="200" width="150" height="120" as="geometry" />
        </mxCell>
        <mxCell id="MtRLI7yiEm-c7Kpkj0M4-13" value="HOME" style="text;html=1;strokeColor=none;fillColor=none;align=center;verticalAlign=middle;whiteSpace=wrap;rounded=0;fontStyle=5;fontColor=#1A1A1A;" vertex="1" parent="MtRLI7yiEm-c7Kpkj0M4-1">
          <mxGeometry x="160" y="110" width="40" height="20" as="geometry" />
        </mxCell>
        <mxCell id="MtRLI7yiEm-c7Kpkj0M4-14" value="HERO VIDEO in background" style="text;html=1;strokeColor=none;fillColor=none;align=center;verticalAlign=middle;whiteSpace=wrap;rounded=0;fontColor=#1A1A1A;" vertex="1" parent="MtRLI7yiEm-c7Kpkj0M4-1">
          <mxGeometry x="90" y="150" width="150" height="20" as="geometry" />
        </mxCell>
        <mxCell id="MtRLI7yiEm-c7Kpkj0M4-15" value="" style="rounded=1;whiteSpace=wrap;html=1;fontColor=#FF3399;" vertex="1" parent="MtRLI7yiEm-c7Kpkj0M4-1">
          <mxGeometry x="90" y="363" width="180" height="30" as="geometry" />
        </mxCell>
        <mxCell id="MtRLI7yiEm-c7Kpkj0M4-16" value="Copyright text" style="text;html=1;strokeColor=none;fillColor=none;align=center;verticalAlign=middle;whiteSpace=wrap;rounded=0;fontColor=#1A1A1A;" vertex="1" parent="MtRLI7yiEm-c7Kpkj0M4-1">
          <mxGeometry x="120" y="368" width="10" height="20" as="geometry" />
        </mxCell>
        <mxCell id="MtRLI7yiEm-c7Kpkj0M4-17" value="Social Media links" style="text;html=1;strokeColor=none;fillColor=none;align=center;verticalAlign=middle;whiteSpace=wrap;rounded=0;fontColor=#1A1A1A;" vertex="1" parent="MtRLI7yiEm-c7Kpkj0M4-1">
          <mxGeometry x="210" y="368" width="67" height="20" as="geometry" />
        </mxCell>
        <mxCell id="MtRLI7yiEm-c7Kpkj0M4-18" value="Footer" style="text;html=1;strokeColor=none;fillColor=none;align=center;verticalAlign=middle;whiteSpace=wrap;rounded=0;fontStyle=5;fontColor=#1A1A1A;" vertex="1" parent="MtRLI7yiEm-c7Kpkj0M4-1">
          <mxGeometry x="160" y="363" width="40" height="20" as="geometry" />
        </mxCell>
        <mxCell id="MtRLI7yiEm-c7Kpkj0M4-19" value="" style="html=1;verticalLabelPosition=bottom;labelBackgroundColor=#ffffff;verticalAlign=top;shadow=0;dashed=0;strokeWidth=1;shape=mxgraph.ios7.misc.iphone;strokeColor=#c0c0c0;fontSize=24;" vertex="1" parent="MtRLI7yiEm-c7Kpkj0M4-1">
          <mxGeometry x="460" y="10" width="200" height="450" as="geometry" />
        </mxCell>
        <mxCell id="MtRLI7yiEm-c7Kpkj0M4-20" value="" style="html=1;verticalLabelPosition=bottom;labelBackgroundColor=#ffffff;verticalAlign=top;shadow=0;dashed=0;strokeWidth=2;shape=mxgraph.ios7.misc.options;fillColor=#222222;fontColor=#FF3399;" vertex="1" parent="MtRLI7yiEm-c7Kpkj0M4-1">
          <mxGeometry x="627.5" y="78.25" width="20" height="20" as="geometry" />
        </mxCell>
        <mxCell id="MtRLI7yiEm-c7Kpkj0M4-21" value="Logo" style="text;html=1;strokeColor=none;fillColor=none;align=center;verticalAlign=middle;whiteSpace=wrap;rounded=0;" vertex="1" parent="MtRLI7yiEm-c7Kpkj0M4-1">
          <mxGeometry x="535" y="78.25" width="40" height="20" as="geometry" />
        </mxCell>
        <mxCell id="MtRLI7yiEm-c7Kpkj0M4-22" value="" style="rounded=1;whiteSpace=wrap;html=1;fontColor=#FF3399;" vertex="1" parent="MtRLI7yiEm-c7Kpkj0M4-1">
          <mxGeometry x="470" y="358" width="176.5" height="30" as="geometry" />
        </mxCell>
        <mxCell id="MtRLI7yiEm-c7Kpkj0M4-23" value="Copyright text" style="text;html=1;strokeColor=none;fillColor=none;align=center;verticalAlign=middle;whiteSpace=wrap;rounded=0;fontColor=#1A1A1A;" vertex="1" parent="MtRLI7yiEm-c7Kpkj0M4-1">
          <mxGeometry x="496.5" y="363" width="10" height="20" as="geometry" />
        </mxCell>
        <mxCell id="MtRLI7yiEm-c7Kpkj0M4-24" value="Social Media links" style="text;html=1;strokeColor=none;fillColor=none;align=center;verticalAlign=middle;whiteSpace=wrap;rounded=0;fontColor=#1A1A1A;" vertex="1" parent="MtRLI7yiEm-c7Kpkj0M4-1">
          <mxGeometry x="586.5" y="363" width="67" height="20" as="geometry" />
        </mxCell>
        <mxCell id="MtRLI7yiEm-c7Kpkj0M4-25" value="Footer" style="text;html=1;strokeColor=none;fillColor=none;align=center;verticalAlign=middle;whiteSpace=wrap;rounded=0;fontStyle=5;fontColor=#1A1A1A;" vertex="1" parent="MtRLI7yiEm-c7Kpkj0M4-1">
          <mxGeometry x="536.5" y="358" width="40" height="20" as="geometry" />
        </mxCell>
        <mxCell id="MtRLI7yiEm-c7Kpkj0M4-26" value="Recipes" style="text;html=1;strokeColor=none;fillColor=none;align=center;verticalAlign=middle;whiteSpace=wrap;rounded=0;fontStyle=5;fontColor=#1A1A1A;" vertex="1" parent="MtRLI7yiEm-c7Kpkj0M4-1">
          <mxGeometry x="540" y="120" width="40" height="20" as="geometry" />
        </mxCell>
        <mxCell id="MtRLI7yiEm-c7Kpkj0M4-27" value="" style="verticalLabelPosition=bottom;shadow=0;dashed=0;align=center;html=1;verticalAlign=top;strokeWidth=1;shape=mxgraph.mockup.graphics.simpleIcon;strokeColor=#999999;fontColor=#1A1A1A;" vertex="1" parent="MtRLI7yiEm-c7Kpkj0M4-1">
          <mxGeometry x="488" y="150" width="144" height="30" as="geometry" />
        </mxCell>
        <mxCell id="MtRLI7yiEm-c7Kpkj0M4-28" value="Search bar" style="text;html=1;strokeColor=none;fillColor=none;align=center;verticalAlign=middle;whiteSpace=wrap;rounded=0;fontStyle=5;fontColor=#1A1A1A;" vertex="1" parent="MtRLI7yiEm-c7Kpkj0M4-1">
          <mxGeometry x="506.5" y="180" width="100" height="20" as="geometry" />
        </mxCell>
        <mxCell id="MtRLI7yiEm-c7Kpkj0M4-29" value="" style="verticalLabelPosition=bottom;shadow=0;dashed=0;align=center;html=1;verticalAlign=top;strokeWidth=1;shape=mxgraph.mockup.graphics.simpleIcon;strokeColor=#999999;fontColor=#1A1A1A;" vertex="1" parent="MtRLI7yiEm-c7Kpkj0M4-1">
          <mxGeometry x="488" y="210" width="142" height="90" as="geometry" />
        </mxCell>
        <mxCell id="MtRLI7yiEm-c7Kpkj0M4-30" value="Recipe cards" style="text;html=1;strokeColor=none;fillColor=none;align=center;verticalAlign=middle;whiteSpace=wrap;rounded=0;fontStyle=5;fontColor=#1A1A1A;" vertex="1" parent="MtRLI7yiEm-c7Kpkj0M4-1">
          <mxGeometry x="506.5" y="310" width="100" height="20" as="geometry" />
        </mxCell>
        <mxCell id="MtRLI7yiEm-c7Kpkj0M4-31" value="" style="html=1;verticalLabelPosition=bottom;labelBackgroundColor=#ffffff;verticalAlign=top;shadow=0;dashed=0;strokeWidth=1;shape=mxgraph.ios7.misc.iphone;strokeColor=#c0c0c0;fontSize=24;" vertex="1" parent="MtRLI7yiEm-c7Kpkj0M4-1">
          <mxGeometry x="680" y="10" width="200" height="450" as="geometry" />
        </mxCell>
        <mxCell id="MtRLI7yiEm-c7Kpkj0M4-32" value="" style="html=1;verticalLabelPosition=bottom;labelBackgroundColor=#ffffff;verticalAlign=top;shadow=0;dashed=0;strokeWidth=2;shape=mxgraph.ios7.misc.options;fillColor=#222222;fontColor=#FF3399;" vertex="1" parent="MtRLI7yiEm-c7Kpkj0M4-1">
          <mxGeometry x="847.5" y="78.25" width="20" height="20" as="geometry" />
        </mxCell>
        <mxCell id="MtRLI7yiEm-c7Kpkj0M4-33" value="Logo" style="text;html=1;strokeColor=none;fillColor=none;align=center;verticalAlign=middle;whiteSpace=wrap;rounded=0;" vertex="1" parent="MtRLI7yiEm-c7Kpkj0M4-1">
          <mxGeometry x="755" y="78.25" width="40" height="20" as="geometry" />
        </mxCell>
        <mxCell id="MtRLI7yiEm-c7Kpkj0M4-34" value="" style="rounded=1;whiteSpace=wrap;html=1;fontColor=#FF3399;" vertex="1" parent="MtRLI7yiEm-c7Kpkj0M4-1">
          <mxGeometry x="690" y="358" width="176.5" height="30" as="geometry" />
        </mxCell>
        <mxCell id="MtRLI7yiEm-c7Kpkj0M4-35" value="Copyright text" style="text;html=1;strokeColor=none;fillColor=none;align=center;verticalAlign=middle;whiteSpace=wrap;rounded=0;fontColor=#1A1A1A;" vertex="1" parent="MtRLI7yiEm-c7Kpkj0M4-1">
          <mxGeometry x="716.5" y="363" width="10" height="20" as="geometry" />
        </mxCell>
        <mxCell id="MtRLI7yiEm-c7Kpkj0M4-36" value="Social Media links" style="text;html=1;strokeColor=none;fillColor=none;align=center;verticalAlign=middle;whiteSpace=wrap;rounded=0;fontColor=#1A1A1A;" vertex="1" parent="MtRLI7yiEm-c7Kpkj0M4-1">
          <mxGeometry x="806.5" y="363" width="67" height="20" as="geometry" />
        </mxCell>
        <mxCell id="MtRLI7yiEm-c7Kpkj0M4-37" value="Footer" style="text;html=1;strokeColor=none;fillColor=none;align=center;verticalAlign=middle;whiteSpace=wrap;rounded=0;fontStyle=5;fontColor=#1A1A1A;" vertex="1" parent="MtRLI7yiEm-c7Kpkj0M4-1">
          <mxGeometry x="756.5" y="358" width="40" height="20" as="geometry" />
        </mxCell>
        <mxCell id="MtRLI7yiEm-c7Kpkj0M4-38" value="Recipe details" style="text;html=1;strokeColor=none;fillColor=none;align=center;verticalAlign=middle;whiteSpace=wrap;rounded=0;fontStyle=5;fontColor=#1A1A1A;" vertex="1" parent="MtRLI7yiEm-c7Kpkj0M4-1">
          <mxGeometry x="720" y="120" width="120" height="20" as="geometry" />
        </mxCell>
        <mxCell id="MtRLI7yiEm-c7Kpkj0M4-39" value="" style="verticalLabelPosition=bottom;shadow=0;dashed=0;align=center;html=1;verticalAlign=top;strokeWidth=1;shape=mxgraph.mockup.graphics.simpleIcon;strokeColor=#999999;fontColor=#1A1A1A;" vertex="1" parent="MtRLI7yiEm-c7Kpkj0M4-1">
          <mxGeometry x="708" y="150" width="144" height="170" as="geometry" />
        </mxCell>
        <mxCell id="MtRLI7yiEm-c7Kpkj0M4-40" value="" style="verticalLabelPosition=bottom;verticalAlign=top;html=1;shape=mxgraph.basic.rect;fillColor2=none;strokeWidth=1;size=10;indent=5;fontColor=#1A1A1A;" vertex="1" parent="MtRLI7yiEm-c7Kpkj0M4-1">
          <mxGeometry x="708" y="300" width="61.5" height="20" as="geometry" />
        </mxCell>
        <mxCell id="MtRLI7yiEm-c7Kpkj0M4-41" value="" style="verticalLabelPosition=bottom;verticalAlign=top;html=1;shape=mxgraph.basic.rect;fillColor2=none;strokeWidth=1;size=20;indent=5;fontColor=#1A1A1A;" vertex="1" parent="MtRLI7yiEm-c7Kpkj0M4-1">
          <mxGeometry x="768.5" y="300" width="71.5" height="20" as="geometry" />
        </mxCell>
        <mxCell id="MtRLI7yiEm-c7Kpkj0M4-42" value="Edit" style="text;html=1;strokeColor=none;fillColor=none;align=center;verticalAlign=middle;whiteSpace=wrap;rounded=0;fontStyle=5;fontColor=#1A1A1A;" vertex="1" parent="MtRLI7yiEm-c7Kpkj0M4-1">
          <mxGeometry x="708" y="302.5" width="66.5" height="15" as="geometry" />
        </mxCell>
        <mxCell id="MtRLI7yiEm-c7Kpkj0M4-43" value="Delete" style="text;html=1;strokeColor=none;fillColor=none;align=center;verticalAlign=middle;whiteSpace=wrap;rounded=0;fontStyle=5;fontColor=#1A1A1A;" vertex="1" parent="MtRLI7yiEm-c7Kpkj0M4-1">
          <mxGeometry x="770" y="302.5" width="71.5" height="15" as="geometry" />
        </mxCell>
        <mxCell id="MtRLI7yiEm-c7Kpkj0M4-44" value="" style="html=1;verticalLabelPosition=bottom;labelBackgroundColor=#ffffff;verticalAlign=top;shadow=0;dashed=0;strokeWidth=1;shape=mxgraph.ios7.misc.iphone;strokeColor=#c0c0c0;fontSize=24;" vertex="1" parent="MtRLI7yiEm-c7Kpkj0M4-1">
          <mxGeometry x="900" y="10" width="200" height="450" as="geometry" />
        </mxCell>
        <mxCell id="MtRLI7yiEm-c7Kpkj0M4-45" value="" style="html=1;verticalLabelPosition=bottom;labelBackgroundColor=#ffffff;verticalAlign=top;shadow=0;dashed=0;strokeWidth=2;shape=mxgraph.ios7.misc.options;fillColor=#222222;fontColor=#FF3399;" vertex="1" parent="MtRLI7yiEm-c7Kpkj0M4-1">
          <mxGeometry x="1067.5" y="78.25" width="20" height="20" as="geometry" />
        </mxCell>
        <mxCell id="MtRLI7yiEm-c7Kpkj0M4-46" value="Logo" style="text;html=1;strokeColor=none;fillColor=none;align=center;verticalAlign=middle;whiteSpace=wrap;rounded=0;" vertex="1" parent="MtRLI7yiEm-c7Kpkj0M4-1">
          <mxGeometry x="975" y="78.25" width="40" height="20" as="geometry" />
        </mxCell>
        <mxCell id="MtRLI7yiEm-c7Kpkj0M4-47" value="" style="rounded=1;whiteSpace=wrap;html=1;fontColor=#FF3399;" vertex="1" parent="MtRLI7yiEm-c7Kpkj0M4-1">
          <mxGeometry x="910" y="358" width="176.5" height="30" as="geometry" />
        </mxCell>
        <mxCell id="MtRLI7yiEm-c7Kpkj0M4-48" value="Copyright text" style="text;html=1;strokeColor=none;fillColor=none;align=center;verticalAlign=middle;whiteSpace=wrap;rounded=0;fontColor=#1A1A1A;" vertex="1" parent="MtRLI7yiEm-c7Kpkj0M4-1">
          <mxGeometry x="936.5" y="363" width="10" height="20" as="geometry" />
        </mxCell>
        <mxCell id="MtRLI7yiEm-c7Kpkj0M4-49" value="Social Media links" style="text;html=1;strokeColor=none;fillColor=none;align=center;verticalAlign=middle;whiteSpace=wrap;rounded=0;fontColor=#1A1A1A;" vertex="1" parent="MtRLI7yiEm-c7Kpkj0M4-1">
          <mxGeometry x="1026.5" y="363" width="67" height="20" as="geometry" />
        </mxCell>
        <mxCell id="MtRLI7yiEm-c7Kpkj0M4-50" value="Footer" style="text;html=1;strokeColor=none;fillColor=none;align=center;verticalAlign=middle;whiteSpace=wrap;rounded=0;fontStyle=5;fontColor=#1A1A1A;" vertex="1" parent="MtRLI7yiEm-c7Kpkj0M4-1">
          <mxGeometry x="976.5" y="358" width="40" height="20" as="geometry" />
        </mxCell>
        <mxCell id="MtRLI7yiEm-c7Kpkj0M4-51" value="Username&#39;s Profile" style="text;html=1;strokeColor=none;fillColor=none;align=center;verticalAlign=middle;whiteSpace=wrap;rounded=0;fontStyle=5;fontColor=#1A1A1A;" vertex="1" parent="MtRLI7yiEm-c7Kpkj0M4-1">
          <mxGeometry x="940" y="120" width="120" height="20" as="geometry" />
        </mxCell>
        <mxCell id="MtRLI7yiEm-c7Kpkj0M4-52" value="" style="verticalLabelPosition=bottom;shadow=0;dashed=0;align=center;html=1;verticalAlign=top;strokeWidth=1;shape=mxgraph.mockup.graphics.simpleIcon;strokeColor=#999999;fontColor=#1A1A1A;" vertex="1" parent="MtRLI7yiEm-c7Kpkj0M4-1">
          <mxGeometry x="928" y="150" width="144" height="170" as="geometry" />
        </mxCell>
        <mxCell id="MtRLI7yiEm-c7Kpkj0M4-53" value="" style="html=1;verticalLabelPosition=bottom;labelBackgroundColor=#ffffff;verticalAlign=top;shadow=0;dashed=0;strokeWidth=1;shape=mxgraph.ios7.misc.iphone;strokeColor=#c0c0c0;fontSize=24;" vertex="1" parent="MtRLI7yiEm-c7Kpkj0M4-1">
          <mxGeometry x="90" y="520" width="200" height="450" as="geometry" />
        </mxCell>
        <mxCell id="MtRLI7yiEm-c7Kpkj0M4-54" value="" style="html=1;verticalLabelPosition=bottom;labelBackgroundColor=#ffffff;verticalAlign=top;shadow=0;dashed=0;strokeWidth=2;shape=mxgraph.ios7.misc.options;fillColor=#222222;fontColor=#FF3399;" vertex="1" parent="MtRLI7yiEm-c7Kpkj0M4-1">
          <mxGeometry x="257.5" y="588.25" width="20" height="20" as="geometry" />
        </mxCell>
        <mxCell id="MtRLI7yiEm-c7Kpkj0M4-55" value="Logo" style="text;html=1;strokeColor=none;fillColor=none;align=center;verticalAlign=middle;whiteSpace=wrap;rounded=0;" vertex="1" parent="MtRLI7yiEm-c7Kpkj0M4-1">
          <mxGeometry x="165" y="588.25" width="40" height="20" as="geometry" />
        </mxCell>
        <mxCell id="MtRLI7yiEm-c7Kpkj0M4-56" value="" style="rounded=1;whiteSpace=wrap;html=1;fontColor=#FF3399;" vertex="1" parent="MtRLI7yiEm-c7Kpkj0M4-1">
          <mxGeometry x="100" y="868" width="176.5" height="30" as="geometry" />
        </mxCell>
        <mxCell id="MtRLI7yiEm-c7Kpkj0M4-57" value="Copyright text" style="text;html=1;strokeColor=none;fillColor=none;align=center;verticalAlign=middle;whiteSpace=wrap;rounded=0;fontColor=#1A1A1A;" vertex="1" parent="MtRLI7yiEm-c7Kpkj0M4-1">
          <mxGeometry x="126.5" y="873" width="10" height="20" as="geometry" />
        </mxCell>
        <mxCell id="MtRLI7yiEm-c7Kpkj0M4-58" value="Social Media links" style="text;html=1;strokeColor=none;fillColor=none;align=center;verticalAlign=middle;whiteSpace=wrap;rounded=0;fontColor=#1A1A1A;" vertex="1" parent="MtRLI7yiEm-c7Kpkj0M4-1">
          <mxGeometry x="216.5" y="873" width="67" height="20" as="geometry" />
        </mxCell>
        <mxCell id="MtRLI7yiEm-c7Kpkj0M4-59" value="Footer" style="text;html=1;strokeColor=none;fillColor=none;align=center;verticalAlign=middle;whiteSpace=wrap;rounded=0;fontStyle=5;fontColor=#1A1A1A;" vertex="1" parent="MtRLI7yiEm-c7Kpkj0M4-1">
          <mxGeometry x="166.5" y="868" width="40" height="20" as="geometry" />
        </mxCell>
        <mxCell id="MtRLI7yiEm-c7Kpkj0M4-60" value="Log In form" style="text;html=1;strokeColor=none;fillColor=none;align=center;verticalAlign=middle;whiteSpace=wrap;rounded=0;fontStyle=5;fontColor=#1A1A1A;" vertex="1" parent="MtRLI7yiEm-c7Kpkj0M4-1">
          <mxGeometry x="130" y="630" width="120" height="20" as="geometry" />
        </mxCell>
        <mxCell id="MtRLI7yiEm-c7Kpkj0M4-61" value="" style="verticalLabelPosition=bottom;shadow=0;dashed=0;align=center;html=1;verticalAlign=top;strokeWidth=1;shape=mxgraph.mockup.graphics.simpleIcon;strokeColor=#999999;fontColor=#1A1A1A;" vertex="1" parent="MtRLI7yiEm-c7Kpkj0M4-1">
          <mxGeometry x="118" y="660" width="144" height="170" as="geometry" />
        </mxCell>
        <mxCell id="MtRLI7yiEm-c7Kpkj0M4-62" value="" style="html=1;verticalLabelPosition=bottom;labelBackgroundColor=#ffffff;verticalAlign=top;shadow=0;dashed=0;strokeWidth=1;shape=mxgraph.ios7.misc.iphone;strokeColor=#c0c0c0;fontSize=24;" vertex="1" parent="MtRLI7yiEm-c7Kpkj0M4-1">
          <mxGeometry x="350" y="520" width="200" height="450" as="geometry" />
        </mxCell>
        <mxCell id="MtRLI7yiEm-c7Kpkj0M4-63" value="" style="html=1;verticalLabelPosition=bottom;labelBackgroundColor=#ffffff;verticalAlign=top;shadow=0;dashed=0;strokeWidth=2;shape=mxgraph.ios7.misc.options;fillColor=#222222;fontColor=#FF3399;" vertex="1" parent="MtRLI7yiEm-c7Kpkj0M4-1">
          <mxGeometry x="517.5" y="588.25" width="20" height="20" as="geometry" />
        </mxCell>
        <mxCell id="MtRLI7yiEm-c7Kpkj0M4-64" value="Logo" style="text;html=1;strokeColor=none;fillColor=none;align=center;verticalAlign=middle;whiteSpace=wrap;rounded=0;" vertex="1" parent="MtRLI7yiEm-c7Kpkj0M4-1">
          <mxGeometry x="425" y="588.25" width="40" height="20" as="geometry" />
        </mxCell>
        <mxCell id="MtRLI7yiEm-c7Kpkj0M4-65" value="" style="rounded=1;whiteSpace=wrap;html=1;fontColor=#FF3399;" vertex="1" parent="MtRLI7yiEm-c7Kpkj0M4-1">
          <mxGeometry x="360" y="868" width="176.5" height="30" as="geometry" />
        </mxCell>
        <mxCell id="MtRLI7yiEm-c7Kpkj0M4-66" value="Copyright text" style="text;html=1;strokeColor=none;fillColor=none;align=center;verticalAlign=middle;whiteSpace=wrap;rounded=0;fontColor=#1A1A1A;" vertex="1" parent="MtRLI7yiEm-c7Kpkj0M4-1">
          <mxGeometry x="386.5" y="873" width="10" height="20" as="geometry" />
        </mxCell>
        <mxCell id="MtRLI7yiEm-c7Kpkj0M4-67" value="Social Media links" style="text;html=1;strokeColor=none;fillColor=none;align=center;verticalAlign=middle;whiteSpace=wrap;rounded=0;fontColor=#1A1A1A;" vertex="1" parent="MtRLI7yiEm-c7Kpkj0M4-1">
          <mxGeometry x="476.5" y="873" width="67" height="20" as="geometry" />
        </mxCell>
        <mxCell id="MtRLI7yiEm-c7Kpkj0M4-68" value="Footer" style="text;html=1;strokeColor=none;fillColor=none;align=center;verticalAlign=middle;whiteSpace=wrap;rounded=0;fontStyle=5;fontColor=#1A1A1A;" vertex="1" parent="MtRLI7yiEm-c7Kpkj0M4-1">
          <mxGeometry x="426.5" y="868" width="40" height="20" as="geometry" />
        </mxCell>
        <mxCell id="MtRLI7yiEm-c7Kpkj0M4-69" value="Register form" style="text;html=1;strokeColor=none;fillColor=none;align=center;verticalAlign=middle;whiteSpace=wrap;rounded=0;fontStyle=5;fontColor=#1A1A1A;" vertex="1" parent="MtRLI7yiEm-c7Kpkj0M4-1">
          <mxGeometry x="390" y="630" width="120" height="20" as="geometry" />
        </mxCell>
        <mxCell id="MtRLI7yiEm-c7Kpkj0M4-70" value="" style="verticalLabelPosition=bottom;shadow=0;dashed=0;align=center;html=1;verticalAlign=top;strokeWidth=1;shape=mxgraph.mockup.graphics.simpleIcon;strokeColor=#999999;fontColor=#1A1A1A;" vertex="1" parent="MtRLI7yiEm-c7Kpkj0M4-1">
          <mxGeometry x="378" y="660" width="144" height="170" as="geometry" />
        </mxCell>
      </root>
    </mxGraphModel>
  </diagram>
</mxfile>
